<svg version="1.1" id="Layer_1" xmlns="http://www.w3.org/2000/svg" xmlns:xlink="http://www.w3.org/1999/xlink" x="0px" y="0px"
	 width="100%" viewBox="0 0 259 383" enable-background="new 0 0 259 383" xml:space="preserve">
<path fill="none" opacity="1.000000" stroke="#000000" stroke-linecap="round" stroke-linejoin="round" stroke-width="3.000000"
	d="
M168.000000,79.000000 
	C180.498367,55.595253 169.444656,24.628225 144.047256,16.845779 
	C117.006783,8.559851 90.947067,27.348999 88.870766,52.989536 
	C88.105476,62.440155 90.273048,70.839676 94.591110,79.235115 
	C89.237404,81.652229 83.761459,83.865662 78.518959,86.537209 
	C58.144188,96.920052 42.283585,111.910149 30.889887,131.937363 
	C20.934879,149.435745 16.103985,167.943741 15.897657,187.998947 
	C15.750066,202.345001 18.031933,216.254227 23.157246,229.438873 
	C30.287163,247.780334 40.980373,263.777771 56.401581,276.618195 
	C69.698334,287.689697 84.260895,295.620331 100.974045,300.096893 
	C115.038315,303.863922 129.051544,304.693909 143.513550,303.124908 
	C163.174713,300.991821 181.033722,294.309875 196.936264,282.911102 
	C221.344559,265.415466 237.630249,242.220352 244.021835,212.504700 
	C247.024704,198.543869 247.457428,184.730148 245.191559,170.469559 
	C240.835419,143.053619 227.811600,120.729729 207.405106,102.606850 
	C197.219742,93.561287 185.709991,86.213303 172.513901,81.956894 
	C170.911789,81.440125 169.500000,80.333336 168.000000,79.500000 
"/>
<path fill="none" opacity="1.000000" stroke="#000000" stroke-linecap="round" stroke-linejoin="round" stroke-width="3.000000"
	d="
M87.000000,321.000000 
	C92.537170,316.876190 94.410095,311.719147 92.111877,304.961945 
	C91.481018,303.107117 90.690849,302.628113 89.037155,301.913971 
	C70.666634,293.980530 54.302784,283.049103 41.045818,267.959747 
	C26.110338,250.959869 16.163582,231.424866 11.955137,209.008423 
	C6.810929,181.607574 11.143785,155.761398 24.568001,131.537689 
	C36.590702,109.842972 53.558178,93.012268 75.999039,81.998032 
	C78.006294,81.012833 80.016197,80.030838 81.995270,78.991013 
	C83.843430,78.019958 85.652168,76.973862 87.489517,75.954552 
	C79.562935,41.594765 88.689415,28.788742 106.215851,17.330153 
	C124.889160,5.121748 144.668610,6.099240 162.444824,20.567793 
	C178.178818,33.374123 181.590027,54.568817 175.406250,75.822205 
	C183.123642,80.365021 191.524475,83.771606 199.079956,88.881775 
	C217.385620,101.262840 231.293945,117.461502 240.788925,137.102051 
	C246.415359,148.740463 249.864792,161.310867 251.222168,174.477097 
	C252.121262,183.197784 252.386475,191.898804 251.787506,200.485184 
	C250.994812,211.848724 247.988174,222.927032 243.498901,233.499542 
	C236.998337,248.808731 227.830414,262.391052 215.929428,273.927185 
	C205.575470,283.963745 193.968353,292.448059 180.481995,297.955902 
	C176.267990,299.676880 174.357758,302.544861 173.936935,306.994049 
	C173.465698,311.976288 175.397644,315.499084 179.512650,317.979004 
	C181.270248,319.038239 182.830597,319.325653 185.073257,318.138397 
	C189.147415,315.981506 193.664810,314.661835 198.186035,312.920013 
	C200.569565,313.321014 201.224136,316.275146 203.121902,316.892426 
	C205.180328,317.478149 206.257629,315.242676 208.000000,316.000000 
"/>
<path fill="none" opacity="1.000000" stroke="#000000" stroke-linecap="round" stroke-linejoin="round" stroke-width="3.000000"
	d="
M219.500000,125.000000 
	C215.971863,118.220078 210.458908,113.068726 204.942169,108.063744 
	C195.638290,99.622932 185.137146,92.782478 173.966858,87.064735 
	C169.731186,84.896622 164.933426,83.866463 160.612762,81.041542 
	C166.737396,72.517685 169.506912,63.255997 167.971436,53.004280 
	C166.661148,44.256039 163.363602,36.126587 156.910233,30.096067 
	C144.253387,18.268539 124.319450,17.504234 110.545059,26.568478 
	C100.840454,32.954601 96.597069,43.000095 95.123314,54.016495 
	C93.794785,63.947327 96.143532,73.407158 102.067665,82.131516 
	C80.557686,89.813652 62.161934,101.588081 47.591854,118.578766 
	C34.370701,133.996414 24.820217,151.404312 21.956772,171.993988 
	C18.706982,195.361725 22.507982,217.517548 33.098305,238.450272 
	C36.296417,244.771637 40.606270,250.539795 44.522758,256.485016 
	C46.852333,260.021240 50.089550,261.893585 54.500000,261.000000 
"/>
<path fill="none" opacity="1.000000" stroke="#000000" stroke-linecap="round" stroke-linejoin="round" stroke-width="3.000000"
	d="
M205.500000,336.000000 
	C202.945023,338.699341 198.253525,337.344147 197.243011,336.647491 
	C192.630402,333.467590 189.178711,336.925842 186.088013,338.211578 
	C167.122635,346.101196 147.403961,350.137024 127.001938,349.858063 
	C108.534119,349.605591 90.577484,345.846771 73.502243,338.494781 
	C72.041039,337.865631 70.783722,336.998901 68.969795,337.941895 
	C66.348839,339.304413 63.326500,339.324707 60.511524,338.919861 
	C56.851246,338.393433 53.491165,338.613739 49.957012,339.880035 
	C47.525406,340.751312 45.234753,339.712250 44.770279,335.982788 
	C52.634678,332.858124 55.639984,326.772949 54.079159,318.045441 
	C58.822262,320.477875 60.848877,317.864410 62.196815,314.561005 
	C63.889599,314.220795 65.349594,315.053436 65.397911,316.005188 
	C65.770744,323.347961 70.256470,329.661163 70.500000,337.000000 
"/>
<path fill="none" opacity="1.000000" stroke="#000000" stroke-linecap="round" stroke-linejoin="round" stroke-width="3.000000"
	d="
M147.500000,224.500000 
	C158.197128,226.938126 168.468079,222.663864 178.886078,222.953629 
	C180.182755,217.814758 179.344742,214.228333 175.656784,210.350876 
	C167.341232,201.608017 158.603363,193.385208 149.553314,185.439270 
	C147.815018,183.913071 146.139053,183.451614 143.999725,183.476578 
	C138.167191,183.544662 132.276215,184.014038 126.514015,183.373856 
	C118.779076,182.514496 112.651093,185.077637 106.973228,189.968918 
	C98.560081,197.216629 90.931183,205.260788 82.975281,212.974503 
	C78.841797,216.982147 81.123352,221.981918 80.609703,226.512436 
	C80.306160,229.189804 80.514175,231.918442 79.500000,234.500000 
"/>
<path fill="none" opacity="1.000000" stroke="#000000" stroke-linecap="round" stroke-linejoin="round" stroke-width="3.000000"
	d="
M165.500000,142.000000 
	C175.174088,135.353119 186.443497,132.893723 197.518600,130.072998 
	C204.920547,128.187775 212.499557,126.997742 220.439163,125.408577 
	C228.922226,137.055695 235.517792,149.744675 239.016846,163.995865 
	C242.563004,178.438980 242.794083,193.028824 239.873917,207.474518 
	C236.967392,221.852646 232.411819,235.758362 223.000000,247.500000 
"/>
<path fill="none" opacity="1.000000" stroke="#000000" stroke-linecap="round" stroke-linejoin="round" stroke-width="3.000000"
	d="
M53.500000,357.000000 
	C58.657055,351.076752 65.948433,349.174225 73.054153,347.774994 
	C76.233917,347.148834 79.990211,349.535889 83.501640,350.493988 
	C101.524307,355.411530 119.671944,357.843536 138.517380,356.199127 
	C155.851517,354.686584 172.268463,350.226471 188.501877,344.505310 
	C189.627151,344.108734 190.431061,343.370605 192.034698,343.893616 
	C199.009171,346.168274 206.070709,348.135559 211.839951,353.756073 
	C202.494522,358.794159 192.919464,362.737549 183.024094,366.071503 
	C175.155991,368.722443 167.179062,370.584473 159.042267,372.211365 
	C152.706635,373.478180 146.308441,374.427063 139.988770,374.818970 
	C121.232796,375.982178 102.678093,373.970398 84.504906,368.982147 
	C83.799850,368.788635 83.166664,368.333344 82.500000,368.000000 
"/>
<path fill="none" opacity="1.000000" stroke="#000000" stroke-linecap="round" stroke-linejoin="round" stroke-width="3.000000"
	d="
M92.500000,303.500000 
	C100.000000,305.166687 107.445412,307.162201 115.013527,308.418549 
	C124.958450,310.069519 134.972794,310.002075 145.008652,308.560181 
	C152.973740,307.415771 160.605164,304.800171 168.522049,303.652069 
	C170.819672,303.318848 171.742615,299.894531 174.500000,301.500000 
"/>
<path fill="none" opacity="1.000000" stroke="#000000" stroke-linecap="round" stroke-linejoin="round" stroke-width="3.000000"
	d="
M49.500000,118.000000 
	C58.666668,120.333336 67.950996,122.289856 76.967148,125.105209 
	C86.115952,127.961990 95.304710,131.044067 103.881706,135.241714 
	C108.753036,137.625778 113.303795,138.794891 118.500923,138.517334 
	C120.495239,138.410843 122.500000,138.500000 124.500000,138.500000 
"/>
<path fill="none" opacity="1.000000" stroke="#000000" stroke-linecap="round" stroke-linejoin="round" stroke-width="3.000000"
	d="
M101.000000,174.000000 
	C96.105560,173.171234 93.572121,176.985489 90.530434,179.536285 
	C69.239807,197.390839 52.107437,218.833298 37.000000,242.000000 
"/>
<path fill="none" opacity="1.000000" stroke="#000000" stroke-linecap="round" stroke-linejoin="round" stroke-width="3.000000"
	d="
M164.500000,175.500000 
	C168.986359,175.053864 171.184052,178.720367 173.952957,181.055771 
	C194.278900,198.199463 210.860291,218.568466 225.011002,240.993057 
	C225.256363,241.381897 225.666672,241.666672 226.000000,242.000000 
"/>
<path fill="none" opacity="1.000000" stroke="#000000" stroke-linecap="round" stroke-linejoin="round" stroke-width="3.000000"
	d="
M165.000000,180.500000 
	C168.247452,183.794632 172.153595,186.287674 175.592590,189.397614 
	C191.964813,204.203308 205.396088,221.329865 217.025101,239.984360 
	C218.807098,242.842880 220.923737,245.492783 223.111465,248.555359 
	C217.703430,253.342590 216.645309,263.549072 206.000000,260.000000 
"/>
<path fill="none" opacity="1.000000" stroke="#000000" stroke-linecap="round" stroke-linejoin="round" stroke-width="3.000000"
	d="
M100.500000,179.000000 
	C89.793335,185.957733 80.626892,194.736862 72.080055,204.073288 
	C63.095490,213.887924 54.774281,224.305710 47.499039,235.499374 
	C45.005054,239.336609 42.500000,243.166672 40.000000,247.000000 
"/>
<path fill="none" opacity="1.000000" stroke="#000000" stroke-linecap="round" stroke-linejoin="round" stroke-width="3.000000"
	d="
M36.000000,136.500000 
	C50.672474,140.311111 65.718094,142.716019 79.990318,148.026016 
	C85.383270,150.032455 90.739609,152.175613 95.958664,154.589371 
	C97.681511,155.386169 99.277328,155.446701 101.000000,155.500000 
"/>
<path fill="none" opacity="1.000000" stroke="#000000" stroke-linecap="round" stroke-linejoin="round" stroke-width="3.000000"
	d="
M228.000000,138.500000 
	C216.766968,141.454697 205.228439,142.961548 193.968948,145.880188 
	C185.745239,148.011887 177.909576,151.083374 170.037964,154.099091 
	C168.038208,154.865204 166.243683,156.064377 164.000000,156.000000 
"/>
<path fill="none" opacity="1.000000" stroke="#000000" stroke-linecap="round" stroke-linejoin="round" stroke-width="3.000000"
	d="
M216.500000,121.500000 
	C198.428253,124.852676 180.530731,128.854507 163.514297,136.033875 
	C161.741302,136.781906 160.166672,138.000000 158.500000,139.000000 
"/>
<path fill="none" opacity="1.000000" stroke="#000000" stroke-linecap="round" stroke-linejoin="round" stroke-width="3.000000"
	d="
M46.000000,122.500000 
	C62.120995,125.418259 77.751953,130.069290 92.972115,136.070724 
	C95.503349,137.068802 97.666664,139.000000 99.999992,140.500000 
"/>
<path fill="none" opacity="1.000000" stroke="#000000" stroke-linecap="round" stroke-linejoin="round" stroke-width="3.000000"
	d="
M179.000000,320.000000 
	C164.117050,327.016785 148.113998,329.226837 131.993744,329.834106 
	C117.609375,330.376007 103.379036,327.714172 89.574974,323.739624 
	C86.788910,322.937439 83.824142,322.026031 81.000000,321.000000 
"/>
<path fill="none" opacity="1.000000" stroke="#000000" stroke-linecap="round" stroke-linejoin="round" stroke-width="7.000000"
	d="
M80.500000,223.000000 
	C73.801750,224.362930 71.982536,230.819260 68.030716,235.028839 
	C64.194008,239.115753 62.910267,244.858780 59.073631,249.067123 
	C56.245640,252.169098 56.671257,256.784210 54.931503,260.555511 
	C57.729347,266.889740 64.191299,267.398468 69.563171,269.323730 
	C71.356529,269.966461 73.270615,267.255219 73.346260,265.493408 
	C73.487953,262.193695 74.364113,258.731018 72.750000,255.500000 
"/>
<path fill="none" opacity="1.000000" stroke="#000000" stroke-linecap="round" stroke-linejoin="round" stroke-width="3.000000"
	d="
M120.000000,226.500000 
	C121.207886,227.416794 120.990936,228.739502 121.000648,230.000000 
	C121.089302,241.501114 120.686584,253.009369 121.500000,264.500000 
"/>
<path fill="none" opacity="1.000000" stroke="#000000" stroke-linecap="round" stroke-linejoin="round" stroke-width="3.000000"
	d="
M86.000000,301.500000 
	C85.737236,304.079468 87.303032,306.329529 87.073196,309.006287 
	C86.381432,317.062592 80.461739,320.907227 72.982864,318.044769 
	C70.733147,317.183716 68.601952,315.726501 66.000000,316.000000 
"/>
<path fill="none" opacity="1.000000" stroke="#000000" stroke-linecap="round" stroke-linejoin="round" stroke-width="3.000000"
	d="
M208.500000,313.500000 
	C208.179977,318.749451 209.302185,324.107910 206.157455,329.099213 
	C205.188690,330.636780 205.754654,333.377838 206.553223,335.522095 
	C209.401489,335.386261 212.217575,335.216431 215.035385,334.088409 
	C218.299637,332.781647 217.331879,331.677124 215.520569,329.978088 
	C213.397980,327.987030 209.784286,328.135345 208.500000,325.000000 
"/>
<path fill="none" opacity="1.000000" stroke="#000000" stroke-linecap="round" stroke-linejoin="round" stroke-width="3.000000"
	d="
M126.500000,272.500000 
	C122.415474,273.860107 118.085983,272.158112 113.448448,273.666626 
	C114.296989,279.328094 116.269203,284.699310 118.500000,290.000000 
"/>
<path fill="none" opacity="1.000000" stroke="#000000" stroke-linecap="round" stroke-linejoin="round" stroke-width="8.000000"
	d="
M70.500000,270.000000 
	C74.731354,277.768646 81.013687,283.894562 88.660942,287.674377 
	C92.753738,289.697296 98.395340,291.473206 103.500000,288.500000 
"/>
<path fill="none" opacity="1.000000" stroke="#000000" stroke-linecap="round" stroke-linejoin="round" stroke-width="3.000000"
	d="
M147.000000,225.500000 
	C145.539612,226.941254 145.999603,228.787735 146.016312,230.499847 
	C146.127014,241.833847 145.458282,253.179535 146.500000,264.500000 
"/>
<path fill="none" opacity="1.000000" stroke="#000000" stroke-linecap="round" stroke-linejoin="round" stroke-width="3.000000"
	d="
M92.000000,328.500000 
	C92.971588,331.116364 92.419174,333.833679 92.456749,336.500610 
	C92.480202,338.164490 92.655304,339.487274 94.498337,340.005890 
	C96.734352,340.635101 97.324669,338.581360 97.904869,337.451172 
	C99.500000,334.343781 96.513908,330.323212 93.000000,330.500000 
"/>
<path fill="none" opacity="1.000000" stroke="#000000" stroke-linecap="round" stroke-linejoin="round" stroke-width="2.000000"
	d="
M131.500000,140.500000 
	C132.000000,140.833328 132.957520,141.203278 132.934204,141.494736 
	C131.894180,154.488647 132.766937,167.501282 132.500000,180.500000 
"/>
<path fill="none" opacity="1.000000" stroke="#000000" stroke-linecap="round" stroke-linejoin="round" stroke-width="11.000000"
	d="
M74.000000,266.000000 
	C82.780296,264.261078 91.654785,265.011627 100.500000,265.002014 
	C108.999992,264.992767 117.836006,266.432831 125.892937,264.543457 
	C132.258606,263.050659 137.665024,264.907135 143.500351,264.964966 
	C155.332520,265.082275 167.167191,265.058472 178.999588,264.953125 
	C181.516678,264.930725 184.269058,264.971863 185.905228,266.595490 
	C190.178925,270.836395 194.468597,269.040894 198.455658,266.916779 
	C206.178177,262.802582 205.832184,261.660278 204.707413,254.965149 
	C203.757599,249.311432 202.750046,244.092926 198.479568,240.021439 
	C198.134415,239.692352 197.500000,239.666672 197.000000,239.500015 
"/>
<path fill="none" opacity="1.000000" stroke="#000000" stroke-linecap="round" stroke-linejoin="round" stroke-width="5.000000"
	d="
M147.000000,223.500000 
	C145.727432,222.269287 146.226654,220.251114 144.343430,218.995636 
	C140.979233,218.915833 136.935455,219.334045 132.991409,218.025909 
	C130.229935,217.110001 127.791275,219.582748 124.998520,219.007172 
	C120.841873,218.150497 121.405701,222.129257 120.050713,224.036041 
	C118.426514,226.321640 116.158508,226.275162 114.013351,225.919479 
	C111.456680,225.495560 109.000000,225.234283 106.500000,226.000000 
"/>
<path fill="none" opacity="1.000000" stroke="#000000" stroke-linecap="round" stroke-linejoin="round" stroke-width="4.000000"
	d="
M151.500000,359.500000 
	C151.500000,361.333344 151.562805,363.169342 151.484711,364.999359 
	C151.377975,367.500641 149.997986,368.822235 147.500183,369.002502 
	C144.410370,369.225555 144.439346,367.145142 144.492783,364.999817 
	C144.530136,363.500763 144.500000,362.000000 144.500000,360.500000 
"/>
<path fill="none" opacity="1.000000" stroke="#000000" stroke-linecap="round" stroke-linejoin="round" stroke-width="3.000000"
	d="
M194.500000,315.000000 
	C196.150864,318.262329 194.546127,321.516541 193.794250,324.447205 
	C192.885941,327.987610 192.531525,331.433075 192.500000,335.000000 
"/>
<path fill="none" opacity="1.000000" stroke="#000000" stroke-linecap="round" stroke-linejoin="round" stroke-width="3.000000"
	d="
M145.000000,313.000000 
	C142.537384,315.747742 143.249985,320.166656 140.256287,322.715790 
	C137.354965,320.272858 138.874985,315.840698 135.500000,314.000000 
"/>
<path fill="none" opacity="1.000000" stroke="#000000" stroke-linecap="round" stroke-linejoin="round" stroke-width="5.000000"
	d="
M143.000000,76.500000 
	C145.399979,80.398560 146.362961,85.103516 150.424316,88.102493 
	C152.574371,89.690125 151.941299,92.511864 150.437180,94.451279 
	C148.838989,96.511993 147.891708,93.599846 146.500000,93.500000 
"/>
<path fill="none" opacity="1.000000" stroke="#000000" stroke-linecap="round" stroke-linejoin="round" stroke-width="3.000000"
	d="
M111.500000,313.000000 
	C110.222801,312.888153 109.780174,311.746185 108.955582,311.052826 
	C107.195831,309.573059 104.802032,309.316864 103.078552,310.605103 
	C101.355072,311.893341 100.686790,314.193390 101.010246,316.498566 
	C101.458473,319.692932 104.144241,318.427429 105.953941,319.120300 
	C108.514503,320.100616 108.765038,318.422150 109.696358,317.229492 
	C108.700356,316.065613 107.640755,315.911072 106.500000,316.000000 
"/>
<path fill="none" opacity="1.000000" stroke="#000000" stroke-linecap="round" stroke-linejoin="round" stroke-width="3.000000"
	d="
M138.500000,336.500000 
	C138.129700,334.911041 137.373032,333.568115 135.513062,334.050354 
	C133.906250,334.466980 132.749680,335.549591 132.996826,337.500397 
	C133.257996,339.561859 132.091049,342.066406 134.518524,343.467926 
	C136.560806,344.647034 138.096100,344.376526 138.000000,341.500000 
"/>
<path fill="none" opacity="1.000000" stroke="#000000" stroke-linecap="round" stroke-linejoin="round" stroke-width="3.000000"
	d="
M180.500000,327.500000 
	C178.017075,325.279114 176.512573,327.067169 175.567490,329.032471 
	C174.431290,331.395172 173.738785,334.003601 175.502609,336.498138 
	C176.167404,337.438354 177.630188,337.247131 177.917847,336.926331 
	C179.018814,335.698517 181.163879,335.067383 180.941574,333.006287 
	C180.799698,331.690765 179.473480,331.982941 178.500000,332.000000 
"/>
<path fill="none" opacity="1.000000" stroke="#000000" stroke-linecap="round" stroke-linejoin="round" stroke-width="3.000000"
	d="
M127.000000,315.000000 
	C125.956062,314.118561 125.314438,312.604919 123.496483,312.983093 
	C122.085754,313.276520 120.439400,312.281281 119.849327,314.966888 
	C119.314827,317.399597 122.001457,316.554596 122.000000,318.000000 
	C124.073013,317.801910 125.659416,318.479736 126.546158,320.441528 
	C123.387138,324.444366 120.431335,324.096619 118.000000,319.500000 
"/>
<path fill="none" opacity="1.000000" stroke="#000000" stroke-linecap="round" stroke-linejoin="round" stroke-width="8.000000"
	d="
M100.750000,141.500000 
	C102.099609,143.001724 101.463280,144.826324 101.471931,146.500153 
	C101.527061,157.166534 101.500000,167.833328 101.500000,178.500000 
"/>
<path fill="none" opacity="1.000000" stroke="#000000" stroke-linecap="round" stroke-linejoin="round" stroke-width="3.000000"
	d="
M139.000000,109.500000 
	C140.699707,107.288788 140.297180,104.432678 141.342606,101.934143 
	C142.824738,98.391922 138.553436,97.629669 136.846664,95.260025 
	C133.462158,97.437622 133.639282,100.911934 134.132278,103.978737 
	C134.563766,106.662781 134.474991,109.145065 133.445496,111.475922 
	C131.713562,115.397171 131.915131,119.166664 133.500000,123.000000 
"/>
<path fill="none" opacity="1.000000" stroke="#000000" stroke-linecap="round" stroke-linejoin="round" stroke-width="2.000000"
	d="
M98.500000,181.000000 
	C98.141388,183.025284 98.979019,183.539444 100.999100,183.566666 
	C105.164314,183.622772 109.370209,182.911514 113.500000,184.000000 
"/>
<path fill="none" opacity="1.000000" stroke="#000000" stroke-linecap="round" stroke-linejoin="round" stroke-width="15.000000"
	d="
M178.500000,287.500031 
	C176.666656,287.166687 174.748398,287.067444 173.021454,286.440918 
	C170.850693,285.653351 169.118011,286.107727 167.506363,287.507324 
	C164.695831,289.948090 161.735703,290.619049 157.973053,289.599426 
	C153.046478,288.264435 147.453003,289.341400 143.134338,290.500519 
	C135.645752,292.510406 128.683762,291.453705 121.507050,290.907379 
	C119.223503,290.733521 117.224014,290.855835 114.972786,291.384003 
	C109.087074,292.764923 105.118240,290.405731 101.931053,285.040955 
	C100.410561,282.481628 100.220192,279.595245 99.079338,276.965576 
	C98.502777,275.636597 99.208580,274.250153 101.000000,274.000000 
"/>
<path fill="none" opacity="1.000000" stroke="#000000" stroke-linecap="round" stroke-linejoin="round" stroke-width="3.000000"
	d="
M110.000000,335.000000 
	C109.091721,333.001953 107.429153,331.294891 105.619942,333.118958 
	C103.747841,335.006470 103.037048,337.817993 104.983871,340.511658 
	C106.527878,342.647980 108.075615,343.410522 110.000000,341.000000 
"/>
<path fill="none" opacity="1.000000" stroke="#000000" stroke-linecap="round" stroke-linejoin="round" stroke-width="7.000000"
	d="
M116.000000,247.500000 
	C116.937599,248.091629 117.461456,249.172150 116.948639,249.966858 
	C114.103333,254.376114 115.238716,259.272186 115.000000,264.000000 
"/>
<path fill="none" opacity="1.000000" stroke="#000000" stroke-linecap="round" stroke-linejoin="round" stroke-width="5.000000"
	d="
M125.500000,56.000000 
	C125.627335,57.504372 126.433563,58.699661 126.165367,60.524307 
	C125.268402,66.626877 126.968971,72.816757 126.079697,79.011444 
	C125.852119,80.596672 126.623177,82.315628 128.000000,83.500000 
"/>
<path fill="none" opacity="1.000000" stroke="#000000" stroke-linecap="round" stroke-linejoin="round" stroke-width="2.000000"
	d="
M165.500000,183.000000 
	C160.234543,184.419327 154.765457,182.580673 149.500000,184.000000 
"/>
<path fill="none" opacity="1.000000" stroke="#000000" stroke-linecap="round" stroke-linejoin="round" stroke-width="3.000000"
	d="
M188.000000,250.500000 
	C186.821350,255.769714 186.234726,261.094910 186.500000,266.500000 
"/>
<path fill="none" opacity="1.000000" stroke="#000000" stroke-linecap="round" stroke-linejoin="round" stroke-width="7.000000"
	d="
M164.750000,142.000000 
	C162.393234,147.998917 163.076263,154.298798 163.043091,160.500229 
	C163.010971,166.499161 163.333328,172.500000 163.500000,178.500000 
"/>
<path fill="none" opacity="1.000000" stroke="#000000" stroke-linecap="round" stroke-linejoin="round" stroke-width="3.000000"
	d="
M179.500000,222.500000 
	C184.250656,223.798965 187.838013,226.871872 191.550766,229.938538 
	C197.642899,234.970581 196.081909,241.618820 195.984985,247.999771 
	C195.886246,254.500809 195.666672,261.000000 195.500000,267.500000 
"/>
<path fill="none" opacity="1.000000" stroke="#000000" stroke-linecap="round" stroke-linejoin="round" stroke-width="3.000000"
	d="
M122.000000,333.500000 
	C122.000000,335.500000 121.961662,337.500885 122.007805,339.499817 
	C122.111130,343.976624 122.547523,344.281158 127.500000,343.500000 
"/>
<path fill="none" opacity="1.000000" stroke="#000000" stroke-linecap="round" stroke-linejoin="round" stroke-width="3.000000"
	d="
M131.000000,190.000000 
	C131.666672,191.000000 133.095703,192.658524 132.885880,192.901428 
	C129.624695,196.676819 131.564667,201.351273 131.956787,204.950226 
	C132.405777,209.071091 131.083084,213.031265 132.000000,217.000000 
"/>
<path fill="none" opacity="1.000000" stroke="#000000" stroke-linecap="round" stroke-linejoin="round" stroke-width="3.000000"
	d="
M73.500000,241.500000 
	C72.916664,241.500000 72.333336,241.500000 71.750000,241.500000 
	C71.753830,245.515869 68.207466,249.309845 71.000000,253.500000 
"/>
<path fill="none" opacity="1.000000" stroke="#000000" stroke-linecap="round" stroke-linejoin="round" stroke-width="9.000000"
	d="
M139.000000,245.000000 
	C139.000000,240.166672 138.785614,235.320648 139.070602,230.504181 
	C139.283112,226.912384 138.058563,225.441437 134.500000,226.000000 
"/>
<path fill="none" opacity="1.000000" stroke="#000000" stroke-linecap="round" stroke-linejoin="round" stroke-width="5.000000"
	d="
M65.500000,253.500000 
	C64.427643,258.134308 65.265892,262.836884 65.000000,267.500000 
"/>
<path fill="none" opacity="1.000000" stroke="#000000" stroke-linecap="round" stroke-linejoin="round" stroke-width="3.000000"
	d="
M138.750000,51.000000 
	C134.387085,56.277592 135.842606,62.154140 137.000000,68.000000 
"/>
<path fill="none" opacity="1.000000" stroke="#000000" stroke-linecap="round" stroke-linejoin="round" stroke-width="5.000000"
	d="
M152.500000,241.750000 
	C149.539383,249.271927 153.261459,256.940735 152.000000,264.500000 
"/>
<path fill="none" opacity="1.000000" stroke="#000000" stroke-linecap="round" stroke-linejoin="round" stroke-width="3.000000"
	d="
M159.000000,331.500000 
	C159.000000,334.509247 159.000000,337.518494 159.000000,340.150513 
	C160.727615,341.512451 162.176605,340.753754 163.500000,341.000000 
"/>
<path fill="none" opacity="1.000000" stroke="#000000" stroke-linecap="round" stroke-linejoin="round" stroke-width="8.000000"
	d="
M126.500000,66.999992 
	C129.500000,67.333328 132.517654,67.555061 135.495850,68.026260 
	C139.917923,68.725899 141.727005,71.617142 140.477234,75.993500 
	C139.421112,79.691734 138.166672,83.333336 137.000015,87.000000 
"/>
<path fill="none" opacity="1.000000" stroke="#000000" stroke-linecap="round" stroke-linejoin="round" stroke-width="3.000000"
	d="
M160.500000,252.500000 
	C157.247025,252.655746 158.509247,255.525864 158.149506,257.035614 
	C157.585831,259.401306 158.000000,262.000000 158.000000,264.500000 
"/>
<path fill="none" opacity="1.000000" stroke="#000000" stroke-linecap="round" stroke-linejoin="round" stroke-width="6.000000"
	d="
M114.500000,360.500000 
	C113.287262,365.273041 116.813080,367.676788 119.500000,370.500000 
"/>
<path fill="none" opacity="1.000000" stroke="#000000" stroke-linecap="round" stroke-linejoin="round" stroke-width="3.000000"
	d="
M147.000000,59.000000 
	C148.864578,61.914474 149.153488,65.217964 148.948257,68.496765 
	C148.675842,72.849060 147.526581,73.500000 141.500000,73.500000 
"/>
<path fill="none" opacity="1.000000" stroke="#000000" stroke-linecap="round" stroke-linejoin="round" stroke-width="3.000000"
	d="
M139.500000,273.000000 
	C142.537018,273.357422 143.505203,275.326782 142.957642,277.991302 
	C142.135757,281.990662 142.700211,286.001404 142.500000,290.000000 
"/>
<path fill="none" opacity="1.000000" stroke="#000000" stroke-linecap="round" stroke-linejoin="round" stroke-width="3.000000"
	d="
M163.500015,252.500000 
	C163.333344,256.500000 163.166687,260.500000 163.000015,264.500000 
"/>
<path fill="none" opacity="1.000000" stroke="#000000" stroke-linecap="round" stroke-linejoin="round" stroke-width="3.000000"
	d="
M161.500000,358.750000 
	C156.542969,360.237915 155.664780,364.026703 156.000000,368.500000 
"/>
<path fill="none" opacity="1.000000" stroke="#000000" stroke-linecap="round" stroke-linejoin="round" stroke-width="6.000000"
	d="
M117.000000,75.500000 
	C116.999512,77.679527 116.068459,79.937721 117.503036,81.997887 
	C119.113739,84.310951 116.451218,85.318703 116.000000,87.000000 
"/>
<path fill="none" opacity="1.000000" stroke="#000000" stroke-linecap="round" stroke-linejoin="round" stroke-width="5.000000"
	d="
M108.000000,274.000000 
	C108.171356,278.292847 108.219048,282.554749 105.000000,286.000000 
"/>
<path fill="none" opacity="1.000000" stroke="#000000" stroke-linecap="round" stroke-linejoin="round" stroke-width="3.000000"
	d="
M169.500000,304.500000 
	C167.252075,311.544708 169.567917,316.929840 175.500000,321.000000 
"/>
<path fill="none" opacity="1.000000" stroke="#000000" stroke-linecap="round" stroke-linejoin="round" stroke-width="4.000000"
	d="
M166.500000,274.500000 
	C163.860886,279.088226 167.020462,282.415833 169.000000,286.000000 
"/>
<path fill="none" opacity="1.000000" stroke="#000000" stroke-linecap="round" stroke-linejoin="round" stroke-width="3.000000"
	d="
M74.000000,322.500000 
	C75.221649,326.229767 74.046684,329.850616 73.500000,333.500000 
"/>
<path fill="none" opacity="1.000000" stroke="#000000" stroke-linecap="round" stroke-linejoin="round" stroke-width="3.000000"
	d="
M80.000000,324.500000 
	C79.303482,328.260284 81.171326,331.787445 81.000000,335.500000 
"/>
<path fill="none" opacity="1.000000" stroke="#000000" stroke-linecap="round" stroke-linejoin="round" stroke-width="3.000000"
	d="
M101.000000,330.500000 
	C101.000000,334.166656 101.000000,337.833344 101.000000,341.500000 
"/>
<path fill="none" opacity="1.000000" stroke="#000000" stroke-linecap="round" stroke-linejoin="round" stroke-width="3.000000"
	d="
M116.000000,231.000000 
	C117.923492,234.166672 116.952156,237.512100 115.844177,240.441055 
	C115.020065,242.619629 114.845757,244.431595 115.500000,246.500000 
"/>
<path fill="none" opacity="1.000000" stroke="#000000" stroke-linecap="round" stroke-linejoin="round" stroke-width="2.000000"
	d="
M135.000000,73.500000 
	C132.226379,76.663506 131.024765,80.541557 130.000000,84.500000 
"/>
<path fill="none" opacity="1.000000" stroke="#000000" stroke-linecap="round" stroke-linejoin="round" stroke-width="5.000000"
	d="
M131.500000,165.500000 
	C126.027473,168.200256 120.203827,166.900864 114.500313,167.015717 
	C112.750809,167.050949 110.926956,165.632721 109.117546,167.376480 
	C108.526787,168.557922 110.270195,169.296616 110.000000,170.500000 
"/>
<path fill="none" opacity="1.000000" stroke="#000000" stroke-linecap="round" stroke-linejoin="round" stroke-width="4.000000"
	d="
M54.500000,327.000000 
	C57.148838,330.122437 56.349129,333.901764 56.500000,337.500000 
"/>
<path fill="none" opacity="1.000000" stroke="#000000" stroke-linecap="round" stroke-linejoin="round" stroke-width="4.000000"
	d="
M144.500000,56.500000 
	C143.597366,60.567089 142.613739,64.602478 140.000000,68.000000 
"/>
<path fill="none" opacity="1.000000" stroke="#000000" stroke-linecap="round" stroke-linejoin="round" stroke-width="3.000000"
	d="
M123.000000,70.500000 
	C119.590286,73.110420 122.249794,77.541603 120.000000,80.500000 
"/>
<path fill="none" opacity="1.000000" stroke="#000000" stroke-linecap="round" stroke-linejoin="round" stroke-width="3.000000"
	d="
M170.000000,334.000000 
	C165.580124,333.967957 165.266373,336.175598 166.877182,339.564728 
	C168.712906,339.312347 170.765594,339.889282 171.500000,337.500000 
"/>
<path fill="none" opacity="1.000000" stroke="#000000" stroke-linecap="round" stroke-linejoin="round" stroke-width="3.000000"
	d="
M189.500000,321.500000 
	C188.650024,324.211945 185.147369,322.755371 183.940002,325.346466 
	C185.604736,327.748749 183.006439,330.744720 184.501541,333.499756 
	C186.184174,333.552521 187.805359,333.416077 189.000000,332.000000 
"/>
<path fill="none" opacity="1.000000" stroke="#000000" stroke-linecap="round" stroke-linejoin="round" stroke-width="3.000000"
	d="
M93.500000,234.500000 
	C94.423622,231.108551 94.412918,227.864624 91.855553,224.042542 
	C90.311958,228.197861 87.807510,231.314087 91.000000,235.000000 
"/>
<path fill="none" opacity="1.000000" stroke="#000000" stroke-linecap="round" stroke-linejoin="round" stroke-width="3.000000"
	d="
M181.000000,224.000000 
	C182.747299,227.083481 182.462250,230.273911 181.500000,233.500000 
"/>
<path fill="none" opacity="1.000000" stroke="#000000" stroke-linecap="round" stroke-linejoin="round" stroke-width="3.000000"
	d="
M84.500000,332.000000 
	C82.288170,337.232086 86.412048,337.184418 89.500000,338.000000 
"/>
<path fill="none" opacity="1.000000" stroke="#000000" stroke-linecap="round" stroke-linejoin="round" stroke-width="3.000000"
	d="
M164.500000,225.000000 
	C164.000000,227.166672 163.490295,229.331146 163.003769,231.500839 
	C162.728455,232.728622 163.281647,233.372101 164.500000,233.500000 
"/>
<path fill="none" opacity="1.000000" stroke="#000000" stroke-linecap="round" stroke-linejoin="round" stroke-width="3.000000"
	d="
M107.000000,233.500000 
	C107.157097,230.868576 107.610214,228.177963 105.566322,225.606918 
	C102.784012,228.391998 104.811653,233.155823 101.000000,235.000000 
"/>
<path fill="none" opacity="1.000000" stroke="#000000" stroke-linecap="round" stroke-linejoin="round" stroke-width="4.000000"
	d="
M167.000000,225.000000 
	C167.703598,227.884521 168.498550,230.774429 166.500000,233.500000 
"/>
<path fill="none" opacity="1.000000" stroke="#000000" stroke-linecap="round" stroke-linejoin="round" stroke-width="3.000000"
	d="
M177.500015,223.500000 
	C177.333344,226.500000 177.166672,229.500000 177.000015,232.500000 
"/>
<path fill="none" opacity="1.000000" stroke="#000000" stroke-linecap="round" stroke-linejoin="round" stroke-width="4.000000"
	d="
M86.500000,275.500000 
	C84.081520,271.362396 81.225525,274.224976 78.500000,275.000000 
"/>
<path fill="none" opacity="1.000000" stroke="#000000" stroke-linecap="round" stroke-linejoin="round" stroke-width="3.000000"
	d="
M126.000000,246.500000 
	C121.686531,251.557404 127.313461,251.975937 129.500000,254.000000 
"/>
<path fill="none" opacity="1.000000" stroke="#000000" stroke-linecap="round" stroke-linejoin="round" stroke-width="3.000000"
	d="
M171.500000,329.000000 
	C168.498489,329.619843 164.570282,329.397217 166.500000,334.500000 
"/>
<path fill="none" opacity="1.000000" stroke="#000000" stroke-linecap="round" stroke-linejoin="round" stroke-width="3.000000"
	d="
M89.500000,328.000000 
	C88.000122,327.832245 86.500244,327.664490 85.000183,327.498352 
	C84.053902,330.923401 84.053902,330.923401 88.000000,333.000000 
"/>
<path fill="none" opacity="1.000000" stroke="#000000" stroke-linecap="round" stroke-linejoin="round" stroke-width="5.000000"
	d="
M91.000000,276.500000 
	C89.814682,277.216003 89.534096,279.090149 90.064667,279.382721 
	C93.542816,281.300659 92.919060,284.488678 93.000000,287.500000 
"/>
<path fill="none" opacity="1.000000" stroke="#000000" stroke-linecap="round" stroke-linejoin="round" stroke-width="3.000000"
	d="
M160.500000,273.500000 
	C157.502594,272.438690 154.675430,272.824463 152.000000,274.500000 
"/>
<path fill="none" opacity="1.000000" stroke="#000000" stroke-linecap="round" stroke-linejoin="round" stroke-width="4.000000"
	d="
M196.000000,239.000000 
	C191.143097,238.842651 192.829742,243.215454 191.500000,245.500000 
"/>
<path fill="none" opacity="1.000000" stroke="#000000" stroke-linecap="round" stroke-linejoin="round" stroke-width="3.000000"
	d="
M174.000000,224.000000 
	C173.500000,226.833328 173.000000,229.666672 172.500000,232.500000 
"/>
<path fill="none" opacity="1.000000" stroke="#000000" stroke-linecap="round" stroke-linejoin="round" stroke-width="4.000000"
	d="
M99.000000,226.000000 
	C98.833336,228.833328 98.666664,231.666672 98.500000,234.500000 
"/>
<path fill="none" opacity="1.000000" stroke="#000000" stroke-linecap="round" stroke-linejoin="round" stroke-width="3.000000"
	d="
M100.500000,355.000000 
	C99.147537,357.870483 98.429260,360.298859 101.910057,362.634064 
	C104.061829,364.077637 105.333336,366.833344 107.000008,369.000000 
"/>
<path fill="none" opacity="1.000000" stroke="#000000" stroke-linecap="round" stroke-linejoin="round" stroke-width="4.000000"
	d="
M126.500000,282.500000 
	C126.000000,285.166656 125.500000,287.833344 125.000000,290.500000 
"/>
<path fill="none" opacity="1.000000" stroke="#000000" stroke-linecap="round" stroke-linejoin="round" stroke-width="3.000000"
	d="
M149.500000,265.500000 
	C149.551376,268.478119 148.993408,271.599579 151.500000,274.000000 
"/>
<path fill="none" opacity="1.000000" stroke="#000000" stroke-linecap="round" stroke-linejoin="round" stroke-width="4.000000"
	d="
M86.500000,241.500000 
	C86.333328,241.666656 86.129341,241.811356 86.013580,242.007996 
	C85.940712,242.131760 86.000000,242.333328 86.000000,242.500000 
	C83.651817,241.028061 81.025223,241.644165 78.454002,241.473938 
	C77.013199,242.870621 77.269699,244.764236 77.000000,246.500000 
"/>
<path fill="none" opacity="1.000000" stroke="#000000" stroke-linecap="round" stroke-linejoin="round" stroke-width="3.000000"
	d="
M126.500000,275.500000 
	C125.236809,277.938538 123.121658,279.099152 120.500000,279.500000 
"/>
<path fill="none" opacity="1.000000" stroke="#000000" stroke-linecap="round" stroke-linejoin="round" stroke-width="3.000000"
	d="
M160.500000,313.000000 
	C157.921310,314.868530 159.905243,318.562103 157.500000,320.500000 
"/>
<path fill="none" opacity="1.000000" stroke="#000000" stroke-linecap="round" stroke-linejoin="round" stroke-width="3.000000"
	d="
M158.500000,225.500000 
	C158.447449,228.173798 158.806595,230.873322 158.000000,233.500000 
"/>
<path fill="none" opacity="1.000000" stroke="#000000" stroke-linecap="round" stroke-linejoin="round" stroke-width="2.000000"
	d="
M113.500000,158.500000 
	C116.391617,156.382462 119.493996,158.550262 122.523575,158.209717 
	C123.963829,158.047821 125.843681,158.229889 127.500000,158.500000 
"/>
<path fill="none" opacity="1.000000" stroke="#000000" stroke-linecap="round" stroke-linejoin="round" stroke-width="4.000000"
	d="
M136.500000,53.500000 
	C135.148361,51.684349 133.796707,49.868694 132.445068,48.053040 
	C129.582443,49.498985 128.106888,50.256237 127.374748,52.458359 
	C126.994202,53.602959 126.740685,55.740685 124.500000,55.500000 
"/>
<path fill="none" opacity="1.000000" stroke="#000000" stroke-linecap="round" stroke-linejoin="round" stroke-width="3.000000"
	d="
M122.500000,363.000000 
	C121.513199,365.445312 122.200821,368.002289 122.000000,370.500000 
"/>
<path fill="none" opacity="1.000000" stroke="#000000" stroke-linecap="round" stroke-linejoin="round" stroke-width="3.000000"
	d="
M181.500000,357.500000 
	C182.687057,360.417084 186.486816,360.922424 187.500000,364.000000 
"/>
<path fill="none" opacity="1.000000" stroke="#000000" stroke-linecap="round" stroke-linejoin="round" stroke-width="6.000000"
	d="
M122.750000,94.000000 
	C122.914131,96.627159 123.389740,98.924713 120.654671,101.186996 
	C118.504234,102.965706 117.811066,106.428757 119.500000,109.500000 
"/>
<path fill="none" opacity="1.000000" stroke="#000000" stroke-linecap="round" stroke-linejoin="round" stroke-width="4.000000"
	d="
M152.500000,151.500000 
	C152.500000,151.333328 152.562500,151.131119 152.490875,151.005188 
	C150.529495,147.556458 147.072220,150.048477 144.404938,149.378418 
	C143.220016,149.080780 138.548035,148.327316 138.000000,152.500000 
"/>
<path fill="none" opacity="1.000000" stroke="#000000" stroke-linecap="round" stroke-linejoin="round" stroke-width="3.000000"
	d="
M51.500000,357.000000 
	C58.809998,359.281464 65.581322,362.948669 72.934761,365.211945 
	C75.229576,365.918304 78.435966,365.116089 80.091759,367.946320 
	C80.231606,368.185394 82.354919,367.765228 82.395058,367.484985 
	C82.871796,364.155518 86.845161,364.511841 88.000000,362.000000 
"/>
<path fill="none" opacity="1.000000" stroke="#000000" stroke-linecap="round" stroke-linejoin="round" stroke-width="3.000000"
	d="
M152.000000,233.500000 
	C150.551529,235.833328 150.551529,238.166672 152.000000,240.500000 
"/>
<path fill="none" opacity="1.000000" stroke="#000000" stroke-linecap="round" stroke-linejoin="round" stroke-width="3.000000"
	d="
M183.000000,238.500000 
	C182.666656,240.833328 182.333328,243.166672 182.000000,245.500000 
"/>
<path fill="none" opacity="1.000000" stroke="#000000" stroke-linecap="round" stroke-linejoin="round" stroke-width="3.000000"
	d="
M194.500000,252.000000 
	C190.793015,252.527130 193.537674,255.986832 192.000000,257.500000 
"/>
<path fill="none" opacity="1.000000" stroke="#000000" stroke-linecap="round" stroke-linejoin="round" stroke-width="4.000000"
	d="
M161.500000,310.500000 
	C159.680313,314.048645 164.084534,316.974884 162.500000,320.500000 
"/>
<path fill="none" opacity="1.000000" stroke="#000000" stroke-linecap="round" stroke-linejoin="round" stroke-width="2.000000"
	d="
M151.500000,332.500000 
	C151.500000,335.675446 151.500000,338.850891 151.500000,342.000000 
	C153.500000,342.000000 155.000000,342.000000 156.500000,342.000000 
"/>
<path fill="none" opacity="1.000000" stroke="#000000" stroke-linecap="round" stroke-linejoin="round" stroke-width="2.000000"
	d="
M125.500000,27.500000 
	C126.158653,29.669132 127.608864,31.594707 127.500000,34.000000 
"/>
<path fill="none" opacity="1.000000" stroke="#000000" stroke-linecap="round" stroke-linejoin="round" stroke-width="4.000000"
	d="
M153.000000,313.000000 
	C152.833328,315.833344 152.666656,318.666656 152.500000,321.500000 
"/>
<path fill="none" opacity="1.000000" stroke="#000000" stroke-linecap="round" stroke-linejoin="round" stroke-width="4.000000"
	d="
M129.499985,361.500000 
	C129.333328,364.833344 129.166656,368.166656 128.999985,371.500000 
"/>
<path fill="none" opacity="1.000000" stroke="#000000" stroke-linecap="round" stroke-linejoin="round" stroke-width="3.000000"
	d="
M176.000000,361.000000 
	C178.380463,362.064819 180.190781,363.756805 181.500000,366.000000 
"/>
<path fill="none" opacity="1.000000" stroke="#000000" stroke-linecap="round" stroke-linejoin="round" stroke-width="2.000000"
	d="
M115.500000,53.000000 
	C115.666733,53.666649 115.833466,54.333302 115.999237,54.996262 
	C113.832184,55.495049 111.666092,55.997524 109.500000,56.500000 
"/>
<path fill="none" opacity="1.000000" stroke="#000000" stroke-linecap="round" stroke-linejoin="round" stroke-width="3.000000"
	d="
M76.000000,359.000000 
	C74.307716,360.821808 71.423843,361.332886 70.500000,364.000000 
"/>
<path fill="none" opacity="1.000000" stroke="#000000" stroke-linecap="round" stroke-linejoin="round" stroke-width="3.000000"
	d="
M133.500000,274.500000 
	C134.647415,276.609497 133.590851,278.535339 133.000000,280.500000 
"/>
<path fill="none" opacity="1.000000" stroke="#000000" stroke-linecap="round" stroke-linejoin="round" stroke-width="4.000000"
	d="
M138.500000,165.000000 
	C143.792267,166.480637 149.173630,165.110733 154.414673,165.599747 
	C154.763367,166.852783 155.131683,168.176392 155.500000,169.500000 
"/>
<path fill="none" opacity="1.000000" stroke="#000000" stroke-linecap="round" stroke-linejoin="round" stroke-width="2.000000"
	d="
M115.500000,45.999996 
	C113.500000,45.499996 111.500000,44.999996 109.500000,44.499996 
"/>
<path fill="none" opacity="1.000000" stroke="#000000" stroke-linecap="round" stroke-linejoin="round" stroke-width="2.000000"
	d="
M149.500000,50.500000 
	C151.500000,50.500000 153.500000,50.500000 155.500000,50.500000 
"/>
<path fill="none" opacity="1.000000" stroke="#000000" stroke-linecap="round" stroke-linejoin="round" stroke-width="2.000000"
	d="
M114.500000,50.500000 
	C112.500000,50.500000 110.500000,50.500000 108.500000,50.500000 
"/>
<path fill="none" opacity="1.000000" stroke="#000000" stroke-linecap="round" stroke-linejoin="round" stroke-width="3.000000"
	d="
M188.000000,357.000000 
	C189.337112,359.212524 192.521744,359.392761 193.500000,362.000000 
"/>
<path fill="none" opacity="1.000000" stroke="#000000" stroke-linecap="round" stroke-linejoin="round" stroke-width="3.000000"
	d="
M120.000000,87.500000 
	C121.929520,88.874115 120.084259,91.620872 122.000000,93.000000 
"/>
<path fill="none" opacity="1.000000" stroke="#000000" stroke-linecap="round" stroke-linejoin="round" stroke-width="3.000000"
	d="
M132.000000,27.500000 
	C132.166656,29.333334 132.333328,31.166668 132.500000,33.000000 
"/>
<path fill="none" opacity="1.000000" stroke="#000000" stroke-linecap="round" stroke-linejoin="round" stroke-width="3.000000"
	d="
M128.000000,93.500000 
	C128.012695,99.166946 131.886505,96.468140 134.500000,96.500000 
"/>
<path fill="none" opacity="1.000000" stroke="#000000" stroke-linecap="round" stroke-linejoin="round" stroke-width="3.000000"
	d="
M66.000000,355.000000 
	C64.666840,356.969849 61.966675,357.821228 61.500000,360.500000 
"/>
<path fill="none" opacity="1.000000" stroke="#000000" stroke-linecap="round" stroke-linejoin="round" stroke-width="3.000000"
	d="
M122.500008,361.500000 
	C124.333336,363.666656 126.166672,365.833344 128.000000,368.000000 
"/>
<path fill="none" opacity="1.000000" stroke="#000000" stroke-linecap="round" stroke-linejoin="round" stroke-width="3.000000"
	d="
M70.000000,357.000000 
	C68.861008,358.991577 65.805618,359.258392 65.500000,362.000000 
"/>
<path fill="none" opacity="1.000000" stroke="#000000" stroke-linecap="round" stroke-linejoin="round" stroke-width="3.000000"
	d="
M161.000000,361.000000 
	C162.035065,362.699371 163.601349,364.205566 163.000000,366.500000 
"/>
<path fill="none" opacity="1.000000" stroke="#000000" stroke-linecap="round" stroke-linejoin="round" stroke-width="2.000000"
	d="
M114.500000,40.500000 
	C115.664581,40.670837 116.175262,42.149479 118.080505,41.371243 
	C116.257652,44.872070 114.980515,47.738873 115.502556,50.999592 
	C115.789604,52.792519 114.557739,52.521435 113.500000,52.500000 
"/>
<path fill="none" opacity="1.000000" stroke="#000000" stroke-linecap="round" stroke-linejoin="round" stroke-width="2.000000"
	d="
M137.500000,28.500000 
	C137.899399,30.578627 136.522141,32.172703 135.770020,34.034225 
	C132.153610,32.356449 128.673309,34.739754 125.000000,35.000000 
"/>
<path fill="none" opacity="1.000000" stroke="#000000" stroke-linecap="round" stroke-linejoin="round" stroke-width="3.000000"
	d="
M99.500000,245.500000 
	C99.607437,240.979401 99.607437,240.979401 95.761536,240.468307 
	C95.509041,242.136673 95.254524,243.818329 95.000008,245.500000 
"/>
<path fill="none" opacity="1.000000" stroke="#000000" stroke-linecap="round" stroke-linejoin="round" stroke-width="2.000000"
	d="
M43.000000,125.000000 
	C44.500000,125.166664 46.000000,125.333328 47.500000,125.500000 
"/>
<path fill="none" opacity="1.000000" stroke="#000000" stroke-linecap="round" stroke-linejoin="round" stroke-width="3.000000"
	d="
M95.000000,241.500000 
	C91.047966,240.881302 89.633965,242.800629 90.000000,246.500000 
"/>
<path fill="none" opacity="1.000000" stroke="#000000" stroke-linecap="round" stroke-linejoin="round" stroke-width="2.000000"
	d="
M108.500000,139.000000 
	C107.166664,139.666672 105.833336,140.333328 104.500000,141.000000 
"/>
<path fill="none" opacity="1.000000" stroke="#000000" stroke-linecap="round" stroke-linejoin="round" stroke-width="2.000000"
	d="
M150.500000,45.500000 
	C146.129959,45.354053 150.430649,48.894150 148.598190,50.143967 
	C148.035400,50.527817 147.995270,53.137123 150.500000,52.500000 
"/>
<path fill="none" opacity="1.000000" stroke="#000000" stroke-linecap="round" stroke-linejoin="round" stroke-width="2.000000"
	d="
M136.500000,34.000004 
	C137.832062,34.669186 139.164139,35.338371 140.696381,36.108120 
	C141.297882,34.904823 141.898941,33.702412 142.500000,32.500000 
"/>
<path fill="none" opacity="1.000000" stroke="#000000" stroke-linecap="round" stroke-linejoin="round" stroke-width="2.000000"
	d="
M124.500000,145.500000 
	C124.650093,146.661896 126.032585,147.735764 124.750000,149.000000 
"/>
<path fill="none" opacity="1.000000" stroke="#000000" stroke-linecap="round" stroke-linejoin="round" stroke-width="2.000000"
	d="
M161.000000,141.500000 
	C159.318085,139.257904 157.133072,138.650864 154.500000,139.500000 
"/>
<path fill="none" opacity="1.000000" stroke="#000000" stroke-linecap="round" stroke-linejoin="round" stroke-width="3.000000"
	d="
M168.500000,252.500000 
	C168.166672,254.500000 167.833328,256.500000 167.500000,258.500000 
"/>
<path fill="none" opacity="1.000000" stroke="#000000" stroke-linecap="round" stroke-linejoin="round" stroke-width="2.000000"
	d="
M135.500000,180.500000 
	C133.833328,180.500000 132.166672,180.500000 130.500000,180.500000 
"/>
<path fill="none" opacity="1.000000" stroke="#000000" stroke-linecap="round" stroke-linejoin="round" stroke-width="3.000000"
	d="
M145.000000,333.500000 
	C141.777283,334.640808 141.895767,337.286652 141.973526,340.000763 
	C142.025665,341.820801 142.030884,343.598145 144.498535,343.471497 
	C146.593384,343.363983 148.052628,342.472931 148.023972,339.999725 
	C147.994797,337.483307 148.242599,334.932343 145.500000,333.500000 
"/>
</svg>